STARTFONT 2.1
FONT -Linotype-Helvetica-Medium-O-Narrow-Sans-12-120-72-72-P-53-ISO8859-1
SIZE 12 72 72
FONTBOUNDINGBOX 11 16 -1 -3

STARTPROPERTIES 22
FONTNAME_REGISTRY "-"
FOUNDRY "Linotype"
FAMILY_NAME "Helvetica"
WEIGHT_NAME "Medium"
SLANT "O"
SETWIDTH_NAME "Narrow"
ADD_STYLE_NAME "Sans"
SPACING "P"
CHARSET_REGISTRY "ISO8859"
CHARSET_ENCODING "1"
PIXEL_SIZE 12
POINT_SIZE 120
RESOLUTION_X 72
RESOLUTION_Y 72
AVERAGE_WIDTH 53
FULL_NAME "Helvetica-Narrow-Oblique"
WEIGHT 10
X_HEIGHT 7
QUAD_WIDTH 6
DEFAULT_CHAR 32
FONT_DESCENT 3
FONT_ASCENT 13
ENDPROPERTIES

CHARS 190

STARTCHAR space
ENCODING 32
SWIDTH 228 0
DWIDTH 3 0
BBX 1 1 0 0
BITMAP
00
ENDCHAR

STARTCHAR exclam
ENCODING 33
SWIDTH 228 0
DWIDTH 3 0
BBX 3 9 0 0
BITMAP
20
20
20
40
40
40
00
80
80
ENDCHAR

STARTCHAR quotedbl
ENCODING 34
SWIDTH 291 0
DWIDTH 3 0
BBX 3 3 0 6
BITMAP
A0
A0
A0
ENDCHAR

STARTCHAR numbersign
ENCODING 35
SWIDTH 456 0
DWIDTH 5 0
BBX 5 9 0 0
BITMAP
50
50
F8
50
A0
A0
F0
A0
A0
ENDCHAR

STARTCHAR dollar
ENCODING 36
SWIDTH 456 0
DWIDTH 5 0
BBX 5 11 0 -1
BITMAP
10
30
68
68
60
20
30
B0
B0
60
40
ENDCHAR

STARTCHAR percent
ENCODING 37
SWIDTH 729 0
DWIDTH 9 0
BBX 8 9 0 0
BITMAP
62
94
94
68
10
16
29
29
46
ENDCHAR

STARTCHAR ampersand
ENCODING 38
SWIDTH 547 0
DWIDTH 7 0
BBX 6 9 0 0
BITMAP
18
28
28
30
54
94
88
98
64
ENDCHAR

STARTCHAR quoteright
ENCODING 39
SWIDTH 182 0
DWIDTH 2 0
BBX 2 3 1 6
BITMAP
40
40
80
ENDCHAR

STARTCHAR parenleft
ENCODING 40
SWIDTH 273 0
DWIDTH 3 0
BBX 4 12 0 -3
BITMAP
10
20
40
40
80
80
80
80
80
80
40
40
ENDCHAR

STARTCHAR parenright
ENCODING 41
SWIDTH 273 0
DWIDTH 3 0
BBX 4 12 -1 -3
BITMAP
20
20
10
10
10
10
10
10
20
20
40
80
ENDCHAR

STARTCHAR asterisk
ENCODING 42
SWIDTH 319 0
DWIDTH 4 0
BBX 3 4 1 5
BITMAP
40
E0
40
A0
ENDCHAR

STARTCHAR plus
ENCODING 43
SWIDTH 479 0
DWIDTH 6 0
BBX 5 7 0 0
BITMAP
20
20
20
F8
20
20
20
ENDCHAR

STARTCHAR comma
ENCODING 44
SWIDTH 228 0
DWIDTH 3 0
BBX 2 3 0 -1
BITMAP
40
40
80
ENDCHAR

STARTCHAR minus
ENCODING 45
SWIDTH 479 0
DWIDTH 6 0
BBX 5 1 1 2
BITMAP
F8
ENDCHAR

STARTCHAR period
ENCODING 46
SWIDTH 228 0
DWIDTH 3 0
BBX 1 2 1 0
BITMAP
80
80
ENDCHAR

STARTCHAR slash
ENCODING 47
SWIDTH 228 0
DWIDTH 3 0
BBX 4 9 0 0
BITMAP
10
10
20
20
20
40
40
80
80
ENDCHAR

STARTCHAR zero
ENCODING 48
SWIDTH 456 0
DWIDTH 5 0
BBX 5 9 0 0
BITMAP
30
48
48
48
48
90
90
90
60
ENDCHAR

STARTCHAR one
ENCODING 49
SWIDTH 456 0
DWIDTH 5 0
BBX 3 9 1 0
BITMAP
20
E0
20
20
20
40
40
40
40
ENDCHAR

STARTCHAR two
ENCODING 50
SWIDTH 456 0
DWIDTH 5 0
BBX 5 9 0 0
BITMAP
30
48
48
08
10
20
40
80
F0
ENDCHAR

STARTCHAR three
ENCODING 51
SWIDTH 456 0
DWIDTH 5 0
BBX 5 9 0 0
BITMAP
30
48
48
10
20
10
90
90
60
ENDCHAR

STARTCHAR four
ENCODING 52
SWIDTH 456 0
DWIDTH 5 0
BBX 5 9 0 0
BITMAP
08
18
18
28
50
50
F8
10
10
ENDCHAR

STARTCHAR five
ENCODING 53
SWIDTH 456 0
DWIDTH 5 0
BBX 5 9 0 0
BITMAP
78
40
40
60
90
10
90
A0
60
ENDCHAR

STARTCHAR six
ENCODING 54
SWIDTH 456 0
DWIDTH 5 0
BBX 5 9 0 0
BITMAP
30
48
40
60
90
90
90
A0
60
ENDCHAR

STARTCHAR seven
ENCODING 55
SWIDTH 456 0
DWIDTH 5 0
BBX 4 9 1 0
BITMAP
F0
10
20
40
40
40
80
80
80
ENDCHAR

STARTCHAR eight
ENCODING 56
SWIDTH 456 0
DWIDTH 5 0
BBX 5 9 0 0
BITMAP
30
48
48
30
60
90
90
90
60
ENDCHAR

STARTCHAR nine
ENCODING 57
SWIDTH 456 0
DWIDTH 5 0
BBX 5 9 0 0
BITMAP
30
28
48
48
48
30
10
90
60
ENDCHAR

STARTCHAR colon
ENCODING 58
SWIDTH 228 0
DWIDTH 3 0
BBX 2 7 1 0
BITMAP
40
40
00
00
00
80
80
ENDCHAR

STARTCHAR semicolon
ENCODING 59
SWIDTH 228 0
DWIDTH 3 0
BBX 3 8 0 -1
BITMAP
20
20
00
00
00
40
40
80
ENDCHAR

STARTCHAR less
ENCODING 60
SWIDTH 479 0
DWIDTH 6 0
BBX 5 7 0 0
BITMAP
08
30
40
80
40
20
10
ENDCHAR

STARTCHAR equal
ENCODING 61
SWIDTH 479 0
DWIDTH 6 0
BBX 5 3 0 1
BITMAP
F8
00
F8
ENDCHAR

STARTCHAR greater
ENCODING 62
SWIDTH 479 0
DWIDTH 6 0
BBX 5 7 0 0
BITMAP
40
20
10
08
10
60
80
ENDCHAR

STARTCHAR question
ENCODING 63
SWIDTH 456 0
DWIDTH 5 0
BBX 4 9 1 0
BITMAP
70
90
90
10
20
40
00
40
40
ENDCHAR

STARTCHAR at
ENCODING 64
SWIDTH 832 0
DWIDTH 10 0
BBX 9 11 0 -2
BITMAP
1E00
2100
4E80
5280
9280
A480
A500
AD00
9600
4000
3E00
ENDCHAR

STARTCHAR A
ENCODING 65
SWIDTH 547 0
DWIDTH 7 0
BBX 7 9 -1 0
BITMAP
08
08
14
14
24
3C
42
42
82
ENDCHAR

STARTCHAR B
ENCODING 66
SWIDTH 547 0
DWIDTH 7 0
BBX 6 9 0 0
BITMAP
78
44
44
44
78
84
84
88
F8
ENDCHAR

STARTCHAR C
ENCODING 67
SWIDTH 592 0
DWIDTH 7 0
BBX 6 9 0 0
BITMAP
38
44
44
80
80
84
84
88
70
ENDCHAR

STARTCHAR D
ENCODING 68
SWIDTH 592 0
DWIDTH 7 0
BBX 6 9 0 0
BITMAP
78
44
44
44
84
84
88
88
F0
ENDCHAR

STARTCHAR E
ENCODING 69
SWIDTH 547 0
DWIDTH 7 0
BBX 7 9 0 0
BITMAP
7E
40
40
40
7C
80
80
80
FC
ENDCHAR

STARTCHAR F
ENCODING 70
SWIDTH 501 0
DWIDTH 6 0
BBX 6 9 0 0
BITMAP
7C
40
40
40
78
80
80
80
80
ENDCHAR

STARTCHAR G
ENCODING 71
SWIDTH 638 0
DWIDTH 8 0
BBX 7 9 0 0
BITMAP
1C
22
42
80
8E
82
84
8C
74
ENDCHAR

STARTCHAR H
ENCODING 72
SWIDTH 592 0
DWIDTH 7 0
BBX 6 9 0 0
BITMAP
44
44
44
44
78
88
88
88
88
ENDCHAR

STARTCHAR I
ENCODING 73
SWIDTH 228 0
DWIDTH 3 0
BBX 2 9 0 0
BITMAP
40
40
40
40
40
80
80
80
80
ENDCHAR

STARTCHAR J
ENCODING 74
SWIDTH 410 0
DWIDTH 5 0
BBX 4 9 0 0
BITMAP
10
10
10
10
10
20
A0
A0
C0
ENDCHAR

STARTCHAR K
ENCODING 75
SWIDTH 547 0
DWIDTH 7 0
BBX 7 9 0 0
BITMAP
42
44
48
50
70
90
88
88
84
ENDCHAR

STARTCHAR L
ENCODING 76
SWIDTH 456 0
DWIDTH 5 0
BBX 4 9 0 0
BITMAP
40
40
40
40
40
80
80
80
F0
ENDCHAR

STARTCHAR M
ENCODING 77
SWIDTH 683 0
DWIDTH 9 0
BBX 8 9 0 0
BITMAP
41
41
43
65
A5
AA
AA
92
92
ENDCHAR

STARTCHAR N
ENCODING 78
SWIDTH 592 0
DWIDTH 7 0
BBX 6 9 0 0
BITMAP
44
44
64
64
A8
98
98
88
88
ENDCHAR

STARTCHAR O
ENCODING 79
SWIDTH 638 0
DWIDTH 8 0
BBX 7 9 0 0
BITMAP
3C
42
42
82
82
82
84
84
78
ENDCHAR

STARTCHAR P
ENCODING 80
SWIDTH 547 0
DWIDTH 7 0
BBX 6 9 0 0
BITMAP
78
44
44
44
78
80
80
80
80
ENDCHAR

STARTCHAR Q
ENCODING 81
SWIDTH 638 0
DWIDTH 8 0
BBX 7 9 0 0
BITMAP
3C
42
42
82
82
82
94
88
74
ENDCHAR

STARTCHAR R
ENCODING 82
SWIDTH 592 0
DWIDTH 7 0
BBX 6 9 0 0
BITMAP
78
44
44
44
78
90
88
88
88
ENDCHAR

STARTCHAR S
ENCODING 83
SWIDTH 547 0
DWIDTH 7 0
BBX 6 9 0 0
BITMAP
38
44
44
40
30
08
88
88
70
ENDCHAR

STARTCHAR T
ENCODING 84
SWIDTH 501 0
DWIDTH 6 0
BBX 6 9 0 0
BITMAP
FC
20
20
20
20
40
40
40
40
ENDCHAR

STARTCHAR U
ENCODING 85
SWIDTH 592 0
DWIDTH 7 0
BBX 6 9 0 0
BITMAP
44
44
44
44
84
88
88
88
70
ENDCHAR

STARTCHAR V
ENCODING 86
SWIDTH 547 0
DWIDTH 7 0
BBX 6 9 1 0
BITMAP
84
84
88
88
50
50
60
40
40
ENDCHAR

STARTCHAR W
ENCODING 87
SWIDTH 774 0
DWIDTH 10 0
BBX 9 9 1 0
BITMAP
8880
8880
9900
9900
AA00
6A00
4400
4400
4400
ENDCHAR

STARTCHAR X
ENCODING 88
SWIDTH 547 0
DWIDTH 7 0
BBX 7 9 0 0
BITMAP
22
24
14
18
10
28
28
44
84
ENDCHAR

STARTCHAR Y
ENCODING 89
SWIDTH 547 0
DWIDTH 7 0
BBX 6 9 1 0
BITMAP
84
88
50
50
20
20
40
40
40
ENDCHAR

STARTCHAR Z
ENCODING 90
SWIDTH 501 0
DWIDTH 6 0
BBX 6 9 0 0
BITMAP
7C
08
10
10
20
20
40
40
F8
ENDCHAR

STARTCHAR bracketleft
ENCODING 91
SWIDTH 228 0
DWIDTH 3 0
BBX 4 12 0 -3
BITMAP
30
20
20
40
40
40
40
40
80
80
80
C0
ENDCHAR

STARTCHAR backslash
ENCODING 92
SWIDTH 228 0
DWIDTH 3 0
BBX 2 9 0 0
BITMAP
80
80
80
80
80
40
40
40
40
ENDCHAR

STARTCHAR bracketright
ENCODING 93
SWIDTH 228 0
DWIDTH 3 0
BBX 4 12 0 -3
BITMAP
30
10
10
10
20
20
20
20
20
40
40
C0
ENDCHAR

STARTCHAR asciicircum
ENCODING 94
SWIDTH 385 0
DWIDTH 5 0
BBX 4 6 1 3
BITMAP
20
20
50
50
90
90
ENDCHAR

STARTCHAR underscore
ENCODING 95
SWIDTH 456 0
DWIDTH 5 0
BBX 5 1 0 -3
BITMAP
F8
ENDCHAR

STARTCHAR quoteleft
ENCODING 96
SWIDTH 182 0
DWIDTH 2 0
BBX 2 3 1 6
BITMAP
40
80
80
ENDCHAR

STARTCHAR a
ENCODING 97
SWIDTH 456 0
DWIDTH 5 0
BBX 5 7 0 0
BITMAP
38
48
08
70
90
90
F0
ENDCHAR

STARTCHAR b
ENCODING 98
SWIDTH 456 0
DWIDTH 5 0
BBX 5 9 0 0
BITMAP
20
20
30
48
48
48
90
90
E0
ENDCHAR

STARTCHAR c
ENCODING 99
SWIDTH 410 0
DWIDTH 5 0
BBX 5 7 0 0
BITMAP
30
48
48
80
88
90
60
ENDCHAR

STARTCHAR d
ENCODING 100
SWIDTH 456 0
DWIDTH 5 0
BBX 6 9 0 0
BITMAP
04
04
38
48
48
88
90
90
70
ENDCHAR

STARTCHAR e
ENCODING 101
SWIDTH 456 0
DWIDTH 5 0
BBX 5 7 0 0
BITMAP
30
48
48
78
80
90
E0
ENDCHAR

STARTCHAR f
ENCODING 102
SWIDTH 228 0
DWIDTH 3 0
BBX 4 9 0 0
BITMAP
10
20
70
40
40
40
80
80
80
ENDCHAR

STARTCHAR g
ENCODING 103
SWIDTH 456 0
DWIDTH 5 0
BBX 6 10 -1 -3
BITMAP
1C
24
24
24
48
48
38
10
90
60
ENDCHAR

STARTCHAR h
ENCODING 104
SWIDTH 456 0
DWIDTH 5 0
BBX 5 9 0 0
BITMAP
20
20
30
48
48
48
90
90
90
ENDCHAR

STARTCHAR i
ENCODING 105
SWIDTH 182 0
DWIDTH 2 0
BBX 3 9 0 0
BITMAP
20
00
40
40
40
40
80
80
80
ENDCHAR

STARTCHAR j
ENCODING 106
SWIDTH 182 0
DWIDTH 2 0
BBX 4 12 -1 -3
BITMAP
10
00
20
20
20
20
40
40
40
40
40
80
ENDCHAR

STARTCHAR k
ENCODING 107
SWIDTH 410 0
DWIDTH 5 0
BBX 5 9 0 0
BITMAP
20
20
28
50
60
60
90
90
90
ENDCHAR

STARTCHAR l
ENCODING 108
SWIDTH 182 0
DWIDTH 2 0
BBX 3 9 0 0
BITMAP
20
20
20
40
40
40
80
80
80
ENDCHAR

STARTCHAR m
ENCODING 109
SWIDTH 683 0
DWIDTH 8 0
BBX 8 7 0 0
BITMAP
76
49
49
49
92
92
92
ENDCHAR

STARTCHAR n
ENCODING 110
SWIDTH 456 0
DWIDTH 5 0
BBX 5 7 0 0
BITMAP
70
48
48
48
90
90
90
ENDCHAR

STARTCHAR o
ENCODING 111
SWIDTH 456 0
DWIDTH 5 0
BBX 5 7 0 0
BITMAP
30
48
48
48
90
90
60
ENDCHAR

STARTCHAR p
ENCODING 112
SWIDTH 456 0
DWIDTH 5 0
BBX 6 10 -1 -3
BITMAP
38
24
24
24
48
48
70
80
80
80
ENDCHAR

STARTCHAR q
ENCODING 113
SWIDTH 456 0
DWIDTH 5 0
BBX 5 10 0 -3
BITMAP
38
48
48
48
90
B0
D0
20
20
20
ENDCHAR

STARTCHAR r
ENCODING 114
SWIDTH 273 0
DWIDTH 3 0
BBX 4 7 0 0
BITMAP
70
40
40
40
80
80
80
ENDCHAR

STARTCHAR s
ENCODING 115
SWIDTH 410 0
DWIDTH 5 0
BBX 5 7 0 0
BITMAP
30
48
40
20
10
90
60
ENDCHAR

STARTCHAR t
ENCODING 116
SWIDTH 228 0
DWIDTH 3 0
BBX 4 9 0 0
BITMAP
20
20
70
40
40
40
80
80
C0
ENDCHAR

STARTCHAR u
ENCODING 117
SWIDTH 456 0
DWIDTH 5 0
BBX 5 7 0 0
BITMAP
48
48
48
48
90
B0
D0
ENDCHAR

STARTCHAR v
ENCODING 118
SWIDTH 410 0
DWIDTH 5 0
BBX 4 7 1 0
BITMAP
90
90
A0
A0
C0
C0
80
ENDCHAR

STARTCHAR w
ENCODING 119
SWIDTH 592 0
DWIDTH 8 0
BBX 7 7 1 0
BITMAP
92
92
B4
B4
48
48
48
ENDCHAR

STARTCHAR x
ENCODING 120
SWIDTH 410 0
DWIDTH 5 0
BBX 5 7 0 0
BITMAP
48
50
20
20
20
50
90
ENDCHAR

STARTCHAR y
ENCODING 121
SWIDTH 410 0
DWIDTH 5 0
BBX 6 10 -1 -3
BITMAP
24
24
24
28
28
10
10
20
20
C0
ENDCHAR

STARTCHAR z
ENCODING 122
SWIDTH 410 0
DWIDTH 5 0
BBX 5 7 0 0
BITMAP
78
10
10
20
40
40
F0
ENDCHAR

STARTCHAR braceleft
ENCODING 123
SWIDTH 274 0
DWIDTH 3 0
BBX 3 12 0 -3
BITMAP
20
40
40
40
40
80
40
40
80
80
80
40
ENDCHAR

STARTCHAR bar
ENCODING 124
SWIDTH 213 0
DWIDTH 3 0
BBX 3 12 0 -3
BITMAP
20
20
20
40
40
40
40
40
80
80
80
80
ENDCHAR

STARTCHAR braceright
ENCODING 125
SWIDTH 274 0
DWIDTH 3 0
BBX 3 12 0 -3
BITMAP
40
20
20
20
40
40
20
40
40
40
40
80
ENDCHAR

STARTCHAR asciitilde
ENCODING 126
SWIDTH 479 0
DWIDTH 6 0
BBX 5 2 0 3
BITMAP
68
B0
ENDCHAR

STARTCHAR exclamdown
ENCODING 161
SWIDTH 273 0
DWIDTH 3 0
BBX 3 9 1 -2
BITMAP
20
20
00
40
40
40
80
80
80
ENDCHAR

STARTCHAR cent
ENCODING 162
SWIDTH 456 0
DWIDTH 5 0
BBX 5 9 0 -1
BITMAP
10
30
68
68
A0
A8
D0
60
40
ENDCHAR

STARTCHAR sterling
ENCODING 163
SWIDTH 456 0
DWIDTH 5 0
BBX 5 9 0 0
BITMAP
30
48
48
40
F0
40
40
80
F0
ENDCHAR

STARTCHAR currency
ENCODING 164
SWIDTH 456 0
DWIDTH 5 0
BBX 5 5 0 2
BITMAP
A8
50
88
50
A8
ENDCHAR

STARTCHAR yen
ENCODING 165
SWIDTH 456 0
DWIDTH 5 0
BBX 5 9 0 0
BITMAP
88
48
50
20
70
20
E0
40
40
ENDCHAR

STARTCHAR brokenbar
ENCODING 166
SWIDTH 213 0
DWIDTH 3 0
BBX 2 11 1 -2
BITMAP
40
40
40
40
40
00
80
80
80
80
80
ENDCHAR

STARTCHAR section
ENCODING 167
SWIDTH 456 0
DWIDTH 5 0
BBX 5 12 0 -3
BITMAP
30
48
48
60
90
90
48
48
30
90
90
60
ENDCHAR

STARTCHAR dieresis
ENCODING 168
SWIDTH 273 0
DWIDTH 3 0
BBX 3 1 1 8
BITMAP
A0
ENDCHAR

STARTCHAR copyright
ENCODING 169
SWIDTH 604 0
DWIDTH 7 0
BBX 7 9 0 0
BITMAP
38
44
92
AA
A2
AA
92
44
38
ENDCHAR

STARTCHAR ordfeminine
ENCODING 170
SWIDTH 303 0
DWIDTH 4 0
BBX 3 6 1 3
BITMAP
C0
60
A0
E0
00
E0
ENDCHAR

STARTCHAR guillemotleft
ENCODING 171
SWIDTH 456 0
DWIDTH 5 0
BBX 4 4 1 1
BITMAP
50
A0
A0
50
ENDCHAR

STARTCHAR logicalnot
ENCODING 172
SWIDTH 479 0
DWIDTH 6 0
BBX 6 4 0 1
BITMAP
FC
04
08
08
ENDCHAR

STARTCHAR hyphen
ENCODING 173
SWIDTH 273 0
DWIDTH 3 0
BBX 2 1 0 3
BITMAP
C0
ENDCHAR

STARTCHAR registered
ENCODING 174
SWIDTH 604 0
DWIDTH 7 0
BBX 7 9 0 0
BITMAP
38
44
BA
AA
B2
AA
AA
44
38
ENDCHAR

STARTCHAR macron
ENCODING 175
SWIDTH 273 0
DWIDTH 3 0
BBX 3 1 2 8
BITMAP
E0
ENDCHAR

STARTCHAR degree
ENCODING 176
SWIDTH 328 0
DWIDTH 6 0
BBX 4 4 2 5
BITMAP
70
90
90
E0
ENDCHAR

STARTCHAR plusminus
ENCODING 177
SWIDTH 479 0
DWIDTH 6 0
BBX 6 9 0 0
BITMAP
10
10
10
7C
10
10
10
00
F8
ENDCHAR

STARTCHAR twosuperior
ENCODING 178
SWIDTH 273 0
DWIDTH 3 0
BBX 3 5 1 4
BITMAP
60
20
20
40
E0
ENDCHAR

STARTCHAR threesuperior
ENCODING 179
SWIDTH 273 0
DWIDTH 3 0
BBX 3 5 1 4
BITMAP
60
20
40
20
C0
ENDCHAR

STARTCHAR acute
ENCODING 180
SWIDTH 273 0
DWIDTH 3 0
BBX 2 2 2 7
BITMAP
40
80
ENDCHAR

STARTCHAR mu
ENCODING 181
SWIDTH 456 0
DWIDTH 5 0
BBX 6 10 -1 -3
BITMAP
24
24
24
24
48
58
68
80
80
80
ENDCHAR

STARTCHAR paragraph
ENCODING 182
SWIDTH 440 0
DWIDTH 5 0
BBX 5 12 0 -3
BITMAP
38
68
E8
E8
E8
E8
50
50
50
50
50
50
ENDCHAR

STARTCHAR periodcentered
ENCODING 183
SWIDTH 228 0
DWIDTH 5 0
BBX 1 1 3 4
BITMAP
80
ENDCHAR

STARTCHAR cedilla
ENCODING 184
SWIDTH 273 0
DWIDTH 3 0
BBX 3 3 0 -3
BITMAP
40
20
C0
ENDCHAR

STARTCHAR onesuperior
ENCODING 185
SWIDTH 273 0
DWIDTH 3 0
BBX 2 5 2 4
BITMAP
40
40
80
80
80
ENDCHAR

STARTCHAR ordmasculine
ENCODING 186
SWIDTH 299 0
DWIDTH 4 0
BBX 3 6 1 3
BITMAP
40
A0
A0
40
00
E0
ENDCHAR

STARTCHAR guillemotright
ENCODING 187
SWIDTH 456 0
DWIDTH 5 0
BBX 4 4 1 1
BITMAP
A0
50
50
A0
ENDCHAR

STARTCHAR onequarter
ENCODING 188
SWIDTH 684 0
DWIDTH 8 0
BBX 7 9 0 0
BITMAP
44
48
88
90
92
26
4A
5E
84
ENDCHAR

STARTCHAR onehalf
ENCODING 189
SWIDTH 684 0
DWIDTH 8 0
BBX 7 9 0 0
BITMAP
44
44
88
90
96
22
42
44
8E
ENDCHAR

STARTCHAR threequarters
ENCODING 190
SWIDTH 684 0
DWIDTH 8 0
BBX 8 9 0 0
BITMAP
62
22
44
28
C9
13
25
2F
42
ENDCHAR

STARTCHAR questiondown
ENCODING 191
SWIDTH 501 0
DWIDTH 6 0
BBX 4 9 1 -2
BITMAP
10
10
00
20
20
40
90
90
60
ENDCHAR

STARTCHAR Agrave
ENCODING 192
SWIDTH 547 0
DWIDTH 7 0
BBX 7 12 -1 0
BITMAP
08
04
00
08
08
14
14
24
3C
42
42
82
ENDCHAR

STARTCHAR Aacute
ENCODING 193
SWIDTH 547 0
DWIDTH 7 0
BBX 7 12 -1 0
BITMAP
04
08
00
08
08
14
14
24
3C
42
42
82
ENDCHAR

STARTCHAR Acircumflex
ENCODING 194
SWIDTH 547 0
DWIDTH 7 0
BBX 7 12 -1 0
BITMAP
08
14
00
08
08
14
14
24
3C
42
42
82
ENDCHAR

STARTCHAR Atilde
ENCODING 195
SWIDTH 547 0
DWIDTH 7 0
BBX 7 12 -1 0
BITMAP
50
A0
00
08
08
14
14
24
3C
42
42
82
ENDCHAR

STARTCHAR Adieresis
ENCODING 196
SWIDTH 547 0
DWIDTH 7 0
BBX 7 11 -1 0
BITMAP
14
00
08
08
14
14
24
3C
42
42
82
ENDCHAR

STARTCHAR Aring
ENCODING 197
SWIDTH 547 0
DWIDTH 7 0
BBX 7 13 -1 0
BITMAP
08
14
08
00
08
08
14
14
24
3C
42
42
82
ENDCHAR

STARTCHAR AE
ENCODING 198
SWIDTH 820 0
DWIDTH 10 0
BBX 10 9 0 0
BITMAP
0FC0
1400
1400
2400
2780
7800
4800
8800
8F80
ENDCHAR

STARTCHAR Ccedilla
ENCODING 199
SWIDTH 592 0
DWIDTH 7 0
BBX 6 12 0 -3
BITMAP
38
44
44
80
80
84
84
88
70
20
10
60
ENDCHAR

STARTCHAR Egrave
ENCODING 200
SWIDTH 547 0
DWIDTH 7 0
BBX 7 12 0 0
BITMAP
10
08
00
7E
40
40
40
7C
80
80
80
FC
ENDCHAR

STARTCHAR Eacute
ENCODING 201
SWIDTH 547 0
DWIDTH 7 0
BBX 7 12 0 0
BITMAP
08
10
00
7E
40
40
40
7C
80
80
80
FC
ENDCHAR

STARTCHAR Ecircumflex
ENCODING 202
SWIDTH 547 0
DWIDTH 7 0
BBX 7 12 0 0
BITMAP
10
28
00
7E
40
40
40
7C
80
80
80
FC
ENDCHAR

STARTCHAR Edieresis
ENCODING 203
SWIDTH 547 0
DWIDTH 7 0
BBX 7 11 0 0
BITMAP
14
00
7E
40
40
40
7C
80
80
80
FC
ENDCHAR

STARTCHAR Igrave
ENCODING 204
SWIDTH 228 0
DWIDTH 3 0
BBX 3 12 0 0
BITMAP
40
20
00
40
40
40
40
40
80
80
80
80
ENDCHAR

STARTCHAR Iacute
ENCODING 205
SWIDTH 228 0
DWIDTH 3 0
BBX 3 12 0 0
BITMAP
20
40
00
40
40
40
40
40
80
80
80
80
ENDCHAR

STARTCHAR Icircumflex
ENCODING 206
SWIDTH 228 0
DWIDTH 3 0
BBX 3 12 0 0
BITMAP
40
A0
00
40
40
40
40
40
80
80
80
80
ENDCHAR

STARTCHAR Idieresis
ENCODING 207
SWIDTH 228 0
DWIDTH 3 0
BBX 3 11 0 0
BITMAP
A0
00
40
40
40
40
40
80
80
80
80
ENDCHAR

STARTCHAR Eth
ENCODING 208
SWIDTH 592 0
DWIDTH 7 0
BBX 6 9 0 0
BITMAP
78
44
44
44
E4
84
88
88
F0
ENDCHAR

STARTCHAR Ntilde
ENCODING 209
SWIDTH 592 0
DWIDTH 7 0
BBX 6 12 0 0
BITMAP
14
28
00
44
44
64
64
A8
98
98
88
88
ENDCHAR

STARTCHAR Ograve
ENCODING 210
SWIDTH 638 0
DWIDTH 8 0
BBX 7 12 0 0
BITMAP
10
08
00
3C
42
42
82
82
82
84
84
78
ENDCHAR

STARTCHAR Oacute
ENCODING 211
SWIDTH 638 0
DWIDTH 8 0
BBX 7 12 0 0
BITMAP
08
10
00
3C
42
42
82
82
82
84
84
78
ENDCHAR

STARTCHAR Ocircumflex
ENCODING 212
SWIDTH 638 0
DWIDTH 8 0
BBX 7 12 0 0
BITMAP
08
14
00
3C
42
42
82
82
82
84
84
78
ENDCHAR

STARTCHAR Otilde
ENCODING 213
SWIDTH 638 0
DWIDTH 8 0
BBX 7 12 0 0
BITMAP
14
28
00
3C
42
42
82
82
82
84
84
78
ENDCHAR

STARTCHAR Odieresis
ENCODING 214
SWIDTH 638 0
DWIDTH 8 0
BBX 7 11 0 0
BITMAP
14
00
3C
42
42
82
82
82
84
84
78
ENDCHAR

STARTCHAR multiply
ENCODING 215
SWIDTH 479 0
DWIDTH 6 0
BBX 5 5 1 0
BITMAP
48
50
20
50
90
ENDCHAR

STARTCHAR Oslash
ENCODING 216
SWIDTH 638 0
DWIDTH 8 0
BBX 8 9 0 0
BITMAP
3E
46
46
8A
92
A2
A4
C4
F8
ENDCHAR

STARTCHAR Ugrave
ENCODING 217
SWIDTH 592 0
DWIDTH 7 0
BBX 7 12 0 0
BITMAP
20
10
00
44
44
44
44
84
88
88
88
70
ENDCHAR

STARTCHAR Uacute
ENCODING 218
SWIDTH 592 0
DWIDTH 7 0
BBX 7 12 0 0
BITMAP
08
10
00
44
44
44
44
84
88
88
88
70
ENDCHAR

STARTCHAR Ucircumflex
ENCODING 219
SWIDTH 592 0
DWIDTH 7 0
BBX 7 12 0 0
BITMAP
10
28
00
44
44
44
44
84
88
88
88
70
ENDCHAR

STARTCHAR Udieresis
ENCODING 220
SWIDTH 592 0
DWIDTH 7 0
BBX 7 11 0 0
BITMAP
28
00
44
44
44
44
84
88
88
88
70
ENDCHAR

STARTCHAR Yacute
ENCODING 221
SWIDTH 547 0
DWIDTH 7 0
BBX 6 12 1 0
BITMAP
10
20
00
84
88
50
50
20
20
40
40
40
ENDCHAR

STARTCHAR Thorn
ENCODING 222
SWIDTH 547 0
DWIDTH 7 0
BBX 6 9 0 0
BITMAP
40
40
78
44
44
88
F0
80
80
ENDCHAR

STARTCHAR germandbls
ENCODING 223
SWIDTH 501 0
DWIDTH 6 0
BBX 5 9 0 0
BITMAP
70
48
48
48
50
90
90
90
A0
ENDCHAR

STARTCHAR agrave
ENCODING 224
SWIDTH 456 0
DWIDTH 5 0
BBX 5 10 0 0
BITMAP
20
10
00
38
48
08
70
90
90
F0
ENDCHAR

STARTCHAR aacute
ENCODING 225
SWIDTH 456 0
DWIDTH 5 0
BBX 5 10 0 0
BITMAP
08
10
00
38
48
08
70
90
90
F0
ENDCHAR

STARTCHAR acircumflex
ENCODING 226
SWIDTH 456 0
DWIDTH 5 0
BBX 5 10 0 0
BITMAP
10
28
00
38
48
08
70
90
90
F0
ENDCHAR

STARTCHAR atilde
ENCODING 227
SWIDTH 456 0
DWIDTH 5 0
BBX 6 10 0 0
BITMAP
14
28
00
38
48
08
70
90
90
F0
ENDCHAR

STARTCHAR adieresis
ENCODING 228
SWIDTH 456 0
DWIDTH 5 0
BBX 5 9 0 0
BITMAP
28
00
38
48
08
70
90
90
F0
ENDCHAR

STARTCHAR aring
ENCODING 229
SWIDTH 456 0
DWIDTH 5 0
BBX 5 11 0 0
BITMAP
10
28
10
00
38
48
08
70
90
90
F0
ENDCHAR

STARTCHAR ae
ENCODING 230
SWIDTH 729 0
DWIDTH 9 0
BBX 8 7 0 0
BITMAP
36
49
09
7F
90
B2
DC
ENDCHAR

STARTCHAR ccedilla
ENCODING 231
SWIDTH 410 0
DWIDTH 5 0
BBX 5 10 0 -3
BITMAP
30
48
48
80
88
90
60
40
20
C0
ENDCHAR

STARTCHAR egrave
ENCODING 232
SWIDTH 456 0
DWIDTH 5 0
BBX 5 10 0 0
BITMAP
20
10
00
30
48
48
78
80
90
E0
ENDCHAR

STARTCHAR eacute
ENCODING 233
SWIDTH 456 0
DWIDTH 5 0
BBX 5 10 0 0
BITMAP
10
20
00
30
48
48
78
80
90
E0
ENDCHAR

STARTCHAR ecircumflex
ENCODING 234
SWIDTH 456 0
DWIDTH 5 0
BBX 5 10 0 0
BITMAP
10
28
00
30
48
48
78
80
90
E0
ENDCHAR

STARTCHAR edieresis
ENCODING 235
SWIDTH 456 0
DWIDTH 5 0
BBX 5 9 0 0
BITMAP
28
00
30
48
48
78
80
90
E0
ENDCHAR

STARTCHAR igrave
ENCODING 236
SWIDTH 228 0
DWIDTH 3 0
BBX 3 10 0 0
BITMAP
40
20
00
40
40
40
40
80
80
80
ENDCHAR

STARTCHAR iacute
ENCODING 237
SWIDTH 228 0
DWIDTH 3 0
BBX 3 10 0 0
BITMAP
20
40
00
40
40
40
40
80
80
80
ENDCHAR

STARTCHAR icircumflex
ENCODING 238
SWIDTH 228 0
DWIDTH 3 0
BBX 3 10 0 0
BITMAP
40
A0
00
40
40
40
40
80
80
80
ENDCHAR

STARTCHAR idieresis
ENCODING 239
SWIDTH 228 0
DWIDTH 3 0
BBX 3 9 0 0
BITMAP
A0
00
40
40
40
40
80
80
80
ENDCHAR

STARTCHAR eth
ENCODING 240
SWIDTH 456 0
DWIDTH 5 0
BBX 5 9 0 0
BITMAP
E8
50
38
48
48
48
90
90
60
ENDCHAR

STARTCHAR ntilde
ENCODING 241
SWIDTH 456 0
DWIDTH 5 0
BBX 5 10 0 0
BITMAP
28
50
00
70
48
48
48
90
90
90
ENDCHAR

STARTCHAR ograve
ENCODING 242
SWIDTH 456 0
DWIDTH 5 0
BBX 5 10 0 0
BITMAP
20
10
00
30
48
48
48
90
90
60
ENDCHAR

STARTCHAR oacute
ENCODING 243
SWIDTH 456 0
DWIDTH 5 0
BBX 5 10 0 0
BITMAP
18
20
00
30
48
48
48
90
90
60
ENDCHAR

STARTCHAR ocircumflex
ENCODING 244
SWIDTH 456 0
DWIDTH 5 0
BBX 5 10 0 0
BITMAP
10
28
00
30
48
48
48
90
90
60
ENDCHAR

STARTCHAR otilde
ENCODING 245
SWIDTH 456 0
DWIDTH 5 0
BBX 6 10 0 0
BITMAP
14
28
00
30
48
48
48
90
90
60
ENDCHAR

STARTCHAR odieresis
ENCODING 246
SWIDTH 456 0
DWIDTH 5 0
BBX 5 9 0 0
BITMAP
28
00
30
48
48
48
90
90
60
ENDCHAR

STARTCHAR divide
ENCODING 247
SWIDTH 479 0
DWIDTH 6 0
BBX 5 5 1 0
BITMAP
20
00
F8
00
20
ENDCHAR

STARTCHAR oslash
ENCODING 248
SWIDTH 501 0
DWIDTH 5 0
BBX 5 7 0 0
BITMAP
38
58
58
68
D0
D0
E0
ENDCHAR

STARTCHAR ugrave
ENCODING 249
SWIDTH 456 0
DWIDTH 5 0
BBX 5 10 0 0
BITMAP
20
10
00
48
48
48
48
90
B0
D0
ENDCHAR

STARTCHAR uacute
ENCODING 250
SWIDTH 456 0
DWIDTH 5 0
BBX 5 10 0 0
BITMAP
18
20
00
48
48
48
48
90
B0
D0
ENDCHAR

STARTCHAR ucircumflex
ENCODING 251
SWIDTH 456 0
DWIDTH 5 0
BBX 5 10 0 0
BITMAP
10
28
00
48
48
48
48
90
B0
D0
ENDCHAR

STARTCHAR udieresis
ENCODING 252
SWIDTH 456 0
DWIDTH 5 0
BBX 5 9 0 0
BITMAP
28
00
48
48
48
48
90
B0
D0
ENDCHAR

STARTCHAR yacute
ENCODING 253
SWIDTH 410 0
DWIDTH 5 0
BBX 6 13 -1 -3
BITMAP
04
08
00
24
24
24
28
28
10
10
20
20
C0
ENDCHAR

STARTCHAR thorn
ENCODING 254
SWIDTH 456 0
DWIDTH 4 0
BBX 5 12 -1 -3
BITMAP
20
20
30
28
48
48
50
50
60
80
80
80
ENDCHAR

STARTCHAR ydieresis
ENCODING 255
SWIDTH 410 0
DWIDTH 5 0
BBX 6 12 -1 -3
BITMAP
14
00
24
24
24
28
28
10
10
20
20
C0
ENDCHAR
ENDFONT
